<mxfile host="Electron" modified="2024-02-05T17:28:49.800Z" agent="Mozilla/5.0 (X11; Linux x86_64) AppleWebKit/537.36 (KHTML, like Gecko) draw.io/23.0.2 Chrome/120.0.6099.109 Electron/28.1.0 Safari/537.36" etag="WNSEatSeWf3A4BQ70mDH" version="23.0.2" type="device">
  <diagram name="Page-1" id="dLsKAhoUnHUIjIP42e5E">
    <mxGraphModel dx="1364" dy="843" grid="1" gridSize="10" guides="1" tooltips="1" connect="1" arrows="1" fold="1" page="1" pageScale="1" pageWidth="850" pageHeight="1100" math="0" shadow="0">
      <root>
        <mxCell id="0" />
        <mxCell id="1" parent="0" />
        <mxCell id="ipXoOTl3CQ7mLXRtnnuo-6" value="" style="edgeStyle=orthogonalEdgeStyle;rounded=0;orthogonalLoop=1;jettySize=auto;html=1;" edge="1" parent="1" source="ipXoOTl3CQ7mLXRtnnuo-2" target="ipXoOTl3CQ7mLXRtnnuo-3">
          <mxGeometry relative="1" as="geometry" />
        </mxCell>
        <mxCell id="ipXoOTl3CQ7mLXRtnnuo-2" value="" style="outlineConnect=0;dashed=0;verticalLabelPosition=bottom;verticalAlign=top;align=center;html=1;shape=mxgraph.aws3.mobile_client;fillColor=#D2D3D3;gradientColor=none;" vertex="1" parent="1">
          <mxGeometry x="60" y="239.75" width="50" height="79.5" as="geometry" />
        </mxCell>
        <mxCell id="ipXoOTl3CQ7mLXRtnnuo-7" value="" style="edgeStyle=orthogonalEdgeStyle;rounded=0;orthogonalLoop=1;jettySize=auto;html=1;" edge="1" parent="1" source="ipXoOTl3CQ7mLXRtnnuo-3" target="ipXoOTl3CQ7mLXRtnnuo-4">
          <mxGeometry relative="1" as="geometry" />
        </mxCell>
        <mxCell id="ipXoOTl3CQ7mLXRtnnuo-3" value="" style="sketch=0;points=[[0,0,0],[0.25,0,0],[0.5,0,0],[0.75,0,0],[1,0,0],[0,1,0],[0.25,1,0],[0.5,1,0],[0.75,1,0],[1,1,0],[0,0.25,0],[0,0.5,0],[0,0.75,0],[1,0.25,0],[1,0.5,0],[1,0.75,0]];outlineConnect=0;fontColor=#232F3E;fillColor=#8C4FFF;strokeColor=#ffffff;dashed=0;verticalLabelPosition=bottom;verticalAlign=top;align=center;html=1;fontSize=12;fontStyle=0;aspect=fixed;shape=mxgraph.aws4.resourceIcon;resIcon=mxgraph.aws4.api_gateway;" vertex="1" parent="1">
          <mxGeometry x="200" y="240.5" width="78" height="78" as="geometry" />
        </mxCell>
        <mxCell id="ipXoOTl3CQ7mLXRtnnuo-8" value="" style="edgeStyle=orthogonalEdgeStyle;rounded=0;orthogonalLoop=1;jettySize=auto;html=1;" edge="1" parent="1" source="ipXoOTl3CQ7mLXRtnnuo-4" target="ipXoOTl3CQ7mLXRtnnuo-5">
          <mxGeometry relative="1" as="geometry" />
        </mxCell>
        <mxCell id="ipXoOTl3CQ7mLXRtnnuo-4" value="" style="sketch=0;points=[[0,0,0],[0.25,0,0],[0.5,0,0],[0.75,0,0],[1,0,0],[0,1,0],[0.25,1,0],[0.5,1,0],[0.75,1,0],[1,1,0],[0,0.25,0],[0,0.5,0],[0,0.75,0],[1,0.25,0],[1,0.5,0],[1,0.75,0]];outlineConnect=0;fontColor=#232F3E;fillColor=#ED7100;strokeColor=#ffffff;dashed=0;verticalLabelPosition=bottom;verticalAlign=top;align=center;html=1;fontSize=12;fontStyle=0;aspect=fixed;shape=mxgraph.aws4.resourceIcon;resIcon=mxgraph.aws4.lambda;" vertex="1" parent="1">
          <mxGeometry x="360" y="240.5" width="78" height="78" as="geometry" />
        </mxCell>
        <mxCell id="ipXoOTl3CQ7mLXRtnnuo-5" value="" style="outlineConnect=0;dashed=0;verticalLabelPosition=bottom;verticalAlign=top;align=center;html=1;shape=mxgraph.aws3.dynamo_db;fillColor=#2E73B8;gradientColor=none;" vertex="1" parent="1">
          <mxGeometry x="520" y="239" width="72" height="81" as="geometry" />
        </mxCell>
        <mxCell id="ipXoOTl3CQ7mLXRtnnuo-9" value="Client" style="text;html=1;align=center;verticalAlign=middle;resizable=0;points=[];autosize=1;strokeColor=none;fillColor=none;" vertex="1" parent="1">
          <mxGeometry x="60" y="318.5" width="50" height="30" as="geometry" />
        </mxCell>
        <mxCell id="ipXoOTl3CQ7mLXRtnnuo-10" value="API Gateway" style="text;html=1;align=center;verticalAlign=middle;resizable=0;points=[];autosize=1;strokeColor=none;fillColor=none;" vertex="1" parent="1">
          <mxGeometry x="194" y="318.5" width="90" height="30" as="geometry" />
        </mxCell>
        <mxCell id="ipXoOTl3CQ7mLXRtnnuo-11" value="Services" style="text;html=1;align=center;verticalAlign=middle;resizable=0;points=[];autosize=1;strokeColor=none;fillColor=none;" vertex="1" parent="1">
          <mxGeometry x="364" y="318.5" width="70" height="30" as="geometry" />
        </mxCell>
        <mxCell id="ipXoOTl3CQ7mLXRtnnuo-12" value="Database" style="text;html=1;align=center;verticalAlign=middle;resizable=0;points=[];autosize=1;strokeColor=none;fillColor=none;" vertex="1" parent="1">
          <mxGeometry x="520" y="318.5" width="70" height="30" as="geometry" />
        </mxCell>
      </root>
    </mxGraphModel>
  </diagram>
</mxfile>
